<svg width="64" height="64" viewBox="0 0 64 64" fill="none" xmlns="http://www.w3.org/2000/svg">
  <defs>
    <linearGradient id="bg" x1="10" y1="8" x2="56" y2="56" gradientUnits="userSpaceOnUse">
      <stop stop-color="#5865F2"/>
      <stop offset="0.5" stop-color="#7C3AED"/>
      <stop offset="1" stop-color="#06B6D4"/>
    </linearGradient>
    <linearGradient id="glass" x1="17" y1="16" x2="46" y2="46" gradientUnits="userSpaceOnUse">
      <stop stop-color="white" stop-opacity="0.18"/>
      <stop offset="1" stop-color="white" stop-opacity="0.05"/>
    </linearGradient>
  </defs>
  <rect width="64" height="64" rx="18" fill="url(#bg)"/>
  <rect x="9" y="9" width="46" height="46" rx="16" fill="#0B1020" fill-opacity="0.82"/>
  <rect x="9" y="9" width="46" height="46" rx="16" fill="url(#glass)"/>
  <path d="M18 23.5C18 19.9101 20.9101 17 24.5 17H39.5C43.0899 17 46 19.9101 46 23.5V32.5C46 36.0899 43.0899 39 39.5 39H31L23.8 45.1C22.93 45.84 21.6 45.22 21.6 44.08V39C19.5413 38.2892 18 35.9604 18 33.5V23.5Z" fill="#0B1020" stroke="rgba(255,255,255,0.18)" stroke-width="1.3"/>
  <path d="M29 25.5L23.5 31L29 36.5" stroke="#8EA0FF" stroke-width="3.2" stroke-linecap="round" stroke-linejoin="round"/>
  <path d="M35 25.5L40.5 31L35 36.5" stroke="#63DCFF" stroke-width="3.2" stroke-linecap="round" stroke-linejoin="round"/>
  <path d="M33.5 23.5L30.5 38.5" stroke="white" stroke-opacity="0.88" stroke-width="2.5" stroke-linecap="round"/>
  <circle cx="46.5" cy="18.5" r="3" fill="#10B981"/>
</svg>
