<svg xmlns="http://www.w3.org/2000/svg" viewBox="0 0 32 32">
  <!-- Chat Bubble Background -->
  <path fill="#5865F2" d="M16 2C8.268 2 2 7.6 2 14.5c0 3.9 2.05 7.4 5.3 9.7-.3 2.5-1.8 4.6-1.9 4.7-.2.3-.1.7.2.9.1.1.3.2.4.2.2 0 .3-.1.5-.2 2.8-1.9 5.2-3.3 5.8-3.6.9.3 1.9.4 2.9.4 7.732 0 14-5.6 14-12.5S23.732 2 16 2z"/>
  
  <!-- Code Symbol </> -->
  <g fill="none" stroke="#ffffff" stroke-width="2.5" stroke-linecap="round" stroke-linejoin="round">
    <path d="M10 11 L6 14.5 L10 18" />
    <path d="M22 11 L26 14.5 L22 18" />
    <path d="M17.5 10 L14.5 19" />
  </g>
</svg>